<svg width="488" height="232" viewBox="0 0 488 232" fill="none" xmlns="http://www.w3.org/2000/svg">
<g clip-path="url(#clip0_321_306)">
<path d="M438.604 0H446.122C447.058 0.550587 451.324 1.61796 452.893 2.31612C458.709 4.95833 463.256 9.77608 465.555 15.7336C468.053 22.3223 467.917 29.2518 464.974 35.6766C462.237 41.5547 457.287 46.1159 451.205 48.3705C445.253 50.5684 437.466 50.3278 431.69 47.6461C425.646 44.7891 420.984 39.6477 418.732 33.3545C416.504 27.1552 416.851 20.3218 419.699 14.3807C422.418 8.60546 426.836 4.48462 432.714 1.85359C434.559 1.02711 436.604 0.739031 438.432 0.0637955L438.604 0Z" fill="black"/>
<path d="M10.8535 194.894C11.9356 194.861 15.35 194.635 15.5781 195.36C18.0363 203.212 24.7755 223.924 26.2715 230.661C25.9265 231.715 23.7464 231.583 22.834 231.398C21.7544 230.493 19.5751 223.156 19.2783 221.583C15.4551 221.866 10.5496 221.627 6.58887 221.696C6.08222 223.683 4.64909 230.265 3.20898 231.397C2.19279 231.723 1.04284 231.488 0 231.247V229.444C1.06134 227.77 2.2188 222.148 2.98438 220.039C5.90332 211.997 7.66591 202.757 10.8535 194.894ZM12.9375 200.288C11.3933 204.082 8.88868 213.553 7.61719 217.909L12.9746 217.948L18.209 217.963C17.0206 213.548 15.7386 209.159 14.3633 204.798C14.0531 203.792 13.3062 201.019 12.9375 200.288Z" fill="black"/>
<path d="M482.284 210.116C482.925 210.008 483.898 209.996 484.517 210.21C485.386 210.518 486.096 211.165 486.484 212.003C486.851 212.8 486.872 213.712 486.543 214.525C486.089 215.682 485.403 216.102 484.337 216.585C482.672 216.654 481.508 216.511 480.518 214.993C480.075 214.322 479.928 213.496 480.116 212.713C480.425 211.397 481.204 210.789 482.284 210.116Z" fill="black"/>
<path d="M393.823 232C391.231 231.219 386.838 229.453 385.779 226.711C382.496 218.218 384.374 207.89 383.884 198.886C383.653 194.653 384.005 194.659 388.045 194.945C388.124 200.252 388.145 205.561 388.107 210.868C388.105 216.942 386.884 227.929 395.792 227.574C403.625 227.261 402.641 219.66 402.868 214.204C403.113 208.305 402.299 200.741 402.977 195.053C404.536 194.893 405.27 194.837 406.834 194.914C406.9 200.307 406.927 205.701 406.917 211.095C406.922 216.597 407.698 223.967 403.739 228.374C401.506 230.863 399.33 230.922 396.552 232H393.823Z" fill="black"/>
<path d="M306.495 232L306.338 231.935C305.438 231.572 304.562 231.521 303.605 231.269C292.385 228.304 292.571 212.09 295.473 203.389C298.368 194.714 309.319 191.243 315.828 198.124C315.832 199.532 315.875 201.169 315.792 202.552C312.857 200.657 309.369 197.921 305.665 198.886C297.513 201.009 297.544 213.097 298.846 219.591C299.896 224.83 304.212 228.701 309.669 227.125C312.069 226.432 313.845 224.968 315.847 223.569C315.873 225.125 315.93 226.732 315.84 228.28C313.373 230.162 311.454 231.027 308.307 231.58C307.798 231.67 307.495 231.688 307.074 232H306.495Z" fill="black"/>
<path d="M106.958 232C103.159 230.825 100.126 230.918 97.5296 227.006C91.8276 218.416 92.3773 199.044 103.776 195.093C107.781 193.719 113.111 194.902 115.96 198.127C115.972 199.538 116.021 201.175 115.944 202.561C113.286 200.758 109.657 197.992 106.23 198.777C96.4214 201.025 95.8915 221.134 103.321 226.239C105.196 227.528 107.948 227.691 110.061 227.131C112.736 226.736 114.558 223.525 115.999 224.196C118.739 230.756 108.433 231.115 107.344 232H106.958Z" fill="black"/>
<path d="M472.626 194.868L487.562 194.847V198.157C483.865 198.138 480.042 198.071 476.359 198.183C476.29 208.131 476.221 218.447 476.345 228.384C480.059 228.381 483.858 228.422 487.562 228.369V231.513L472.593 231.55L472.626 194.868Z" fill="black"/>
<path d="M164.299 0.393066C166.204 0.654984 173.672 0.507734 175.903 0.506604L200.122 0.49877L284.543 0.499922C284.408 11.4005 284.553 22.6146 284.562 33.5402L244.7 33.5576V134.084L244.719 173.515C231.301 173.714 217.405 173.539 203.942 173.515C203.606 158.095 203.909 141.525 203.909 126.026L203.913 33.5638C190.799 33.4086 177.415 33.5462 164.279 33.5459L164.299 0.393066Z" fill="black"/>
<path d="M65.0447 0.57285C67.0767 0.286103 70.0704 0.469545 72.1634 0.430635C84.9724 0.199339 98.3047 2.89328 109.701 8.83686C111.314 9.6781 115.303 11.7451 115.42 13.7409C114.553 16.5954 102.386 17.7225 99.5845 17.6348C97.2122 16.3036 94.8408 14.236 92.3692 12.8259C74.4139 2.57436 39.1349 4.44236 41.9615 32.6663C42.5395 38.4378 44.4309 43.5023 48.9845 47.3575C59.8623 56.5673 74.6224 61.5983 87.6433 67.1365C109.707 76.5214 129.436 90.8107 130.859 116.926C131.778 132.772 129.178 144.654 118.513 156.884C106.455 170.706 83.3176 175.726 65.6244 175.81C70.6893 170.011 80.3899 164.965 85.2695 159.033C89.7814 153.547 91.7821 144.213 90.9234 137.207C88.1802 114.829 65.3114 108.785 48.1515 100.382C42.1731 97.4545 37.3541 94.5092 32.1514 90.5314C21.38 82.2965 13.9003 69.077 12.4023 55.6C11.0855 43.7533 14.6953 29.6339 22.3836 20.2495C30.5599 10.2694 41.8458 4.61972 54.3486 1.96217C57.6413 1.26225 61.6782 0.916771 65.0447 0.57285Z" fill="black"/>
<path d="M331.738 0.395508C334.492 0.718449 344.267 0.562541 347.326 0.504405C355.366 0.351654 364.132 0.747808 372.036 0.488465L372.038 174.135L331.688 174.14C331.514 163.228 331.666 151.925 331.666 140.987L331.669 77.3144L331.664 28.0492C331.662 19.0475 331.488 9.35861 331.738 0.395508Z" fill="black"/>
<path d="M417.292 67.0669C417.956 67.6254 422.17 74.2827 422.929 75.4425L436.78 96.5878L469.884 147.084C475.842 156.063 481.735 165.084 487.562 174.147L455.959 174.139C451.4 174.185 446.841 174.174 442.284 174.103C439.618 169.823 435.935 164.712 433.05 160.44L413.947 132.191L395.497 104.897C392.176 99.9847 388.545 94.3539 385.06 89.6244C395.642 82.3132 406.641 74.0666 417.292 67.0669Z" fill="black"/>
<path d="M24.1076 125.033C35.5134 124.008 47.0656 132.213 49.772 143.255C53.7046 159.3 43.6579 173.149 27.4346 174.868C20.6036 174.988 15.7347 173.927 10.1957 169.645C5.14406 165.718 1.85469 159.95 1.04761 153.605C-0.1537 143.929 3.34855 135.104 11.3847 129.416C15.4261 126.555 19.2801 125.63 24.1076 125.033Z" fill="black"/>
<path d="M51.2569 194.953C57.4473 194.528 66.0506 193.898 68.6954 200.794C69.6881 203.37 69.6024 206.236 68.4571 208.748C67.7893 210.196 66.0049 212.617 64.4425 213.023C64.1416 213.102 64.232 213.109 64.004 213.469C67.3302 218.472 68.9665 223.276 70.753 228.977C71.7586 232.185 68.018 232.242 66.7696 230.53C66.2243 229.782 65.5078 227.014 65.2003 226.003C64.3311 223.157 63.2661 218.886 61.1807 216.824C59.2218 214.888 57.3231 215.028 54.8428 215.023C54.7274 219.644 54.965 224.321 54.835 228.941C54.805 230.011 54.7432 230.582 54.0186 231.239C50.4919 232.242 50.2595 230.023 50.6016 227.26C51.2365 222.132 49.5167 198.411 51.2569 194.953ZM64.7784 206.288C65.5852 198.682 60.3917 198.841 54.8311 198.924L54.8243 211.124C57.927 211.193 60.6141 211.624 63.1007 209.607C64.1272 208.444 64.6134 207.844 64.7784 206.288Z" fill="black"/>
<path d="M435.74 194.963C444.503 194.14 455.395 195.014 452.824 207.372C452.186 210.449 450.11 212.075 447.529 213.547C450.253 215.839 455.647 228.74 454.602 231.102C450.396 233.389 449.594 227.789 448.772 225.034C448.008 222.551 447.049 218.694 445.199 216.869C443.156 214.854 441.172 215.025 438.596 215.039C438.601 219.979 438.649 224.926 438.599 229.865C438.58 231.721 435.859 232.291 434.637 230.751C433.899 219.663 434.893 207.222 434.619 196.041C434.607 195.525 435.35 195.199 435.74 194.963ZM446.463 200.053C444.034 198.574 441.301 198.874 438.604 198.933C438.604 202.958 438.549 207.121 438.642 211.134C441.713 211.187 444.604 211.568 447.136 209.668C449.148 206.688 450.036 202.231 446.463 200.053Z" fill="black"/>
<path d="M141.202 194.905C142.448 194.835 143.717 194.895 144.966 194.93C145.386 198.847 145.175 206.084 145.191 210.251L159.033 210.227C159.025 207.899 158.644 196.272 159.598 195.048C160.606 194.731 161.93 194.877 163.012 194.923C163.392 202.271 162.966 210.587 163.126 218.07C163.168 220.041 163.231 229.285 162.933 230.926C162.196 231.607 162.275 231.417 161.149 231.653C158.731 231.122 159.03 230.928 159.016 228.507C158.989 223.795 159.019 219.08 159.031 214.368C154.407 214.337 149.783 214.337 145.158 214.366C145.094 217.295 145.519 227.697 144.764 231.09C144.631 231.688 142.12 231.753 141.123 230.798C140.631 228.403 140.662 197.372 141.202 194.905Z" fill="black"/>
<path d="M337.725 194.9C340.539 194.817 358.984 194.476 359.98 195.41C360.356 196.455 360.215 197.734 360.175 198.863C357.458 199.027 353.685 198.928 350.893 198.934C350.752 206.691 350.878 214.815 350.881 222.601C350.912 224.798 351.535 230.396 349.645 231.529C348.536 231.571 348.321 231.582 347.281 231.23C347.15 231.094 346.993 230.934 346.812 230.751C346.45 222.854 346.626 206.194 346.634 198.94C344.712 198.914 342.839 199.002 340.925 199.085C337.163 199.248 337.006 197.974 337.725 194.9Z" fill="black"/>
<path d="M219.029 194.923C222.103 194.793 238.601 194.657 240.789 195.058C241.691 195.801 241.739 197.475 241.236 198.416C239.748 199.298 234.088 198.95 231.975 198.937C232.154 206.512 231.999 214.734 232.007 222.363C232.014 223.944 232.273 230.28 231.518 231.238C230.486 231.658 229.47 231.574 228.451 231.174C228.34 231.055 228.207 230.912 228.053 230.746C227.77 221.89 227.9 207.378 227.9 198.941C225.915 198.91 223.991 199.054 222.017 199.074C218.496 199.11 217.966 197.959 219.029 194.923Z" fill="black"/>
<path d="M259.777 194.872L275.035 194.876L275.021 197.988L263.731 198.02L263.76 228.39L266.814 228.402L275.04 228.425L274.997 231.44C270.007 231.59 264.746 231.521 259.737 231.53C260.091 219.859 259.925 206.579 259.777 194.872Z" fill="black"/>
<path d="M190.926 194.902C192.153 194.84 193.449 194.898 194.683 194.927C195.094 198.544 195.215 229.544 194.351 231.439C193.088 231.642 191.652 231.793 190.788 230.753C190.318 225.589 190.802 217.169 190.649 211.573C190.574 208.833 190.518 197.04 190.926 194.902Z" fill="black"/>
<path d="M269.597 209.976C271.326 209.351 273.233 210.224 273.887 211.939C274.542 213.653 273.702 215.576 271.997 216.259C270.869 216.711 269.585 216.52 268.638 215.759C267.69 214.998 267.226 213.785 267.426 212.586C267.626 211.388 268.455 210.39 269.597 209.976Z" fill="black"/>
</g>
<defs>
<clipPath id="clip0_321_306">
<rect width="487.562" height="232" fill="white"/>
</clipPath>
</defs>
</svg>
